<svg width="32" height="32" viewBox="0 0 32 32" fill="none" xmlns="http://www.w3.org/2000/svg">
<path opacity="0.1" fill-rule="evenodd" clip-rule="evenodd" d="M0 16C0 7.16344 7.16344 0 16 0C24.8366 0 32 7.16344 32 16C32 24.8366 24.8366 32 16 32C7.16344 32 0 24.8366 0 16Z" fill="white"/>
<path d="M16 8.45898C11.8343 8.45898 8.45703 11.8362 8.45703 16.002C8.45703 17.5261 8.91023 18.9477 9.68936 20.1335L8.71778 23.4239L12.1354 22.4771C13.2653 23.1538 14.5876 23.5418 16 23.5418C20.1657 23.5418 23.543 20.1646 23.543 15.9988C23.543 11.8362 20.1657 8.45898 16 8.45898Z" fill="white"/>
<path d="M20.1445 18.0726C20.1352 17.9733 20.0762 17.8864 19.9862 17.846C19.3778 17.5666 18.7663 17.2873 18.1579 17.0079C18.0896 16.9769 18.0058 16.9924 17.9561 17.0514L17.1304 17.9826C17.0652 18.0571 16.9628 18.0819 16.8728 18.0447C16.4444 17.8677 15.867 17.5698 15.2835 17.0669C14.5851 16.4678 14.1753 15.8252 13.9456 15.4062C14.0605 15.3286 14.374 15.0958 14.5137 14.6643C14.5137 14.6612 14.5168 14.6581 14.5168 14.6581C14.6037 14.3911 14.5851 14.1025 14.4888 13.8386C14.3243 13.4009 13.9953 12.5535 13.868 12.4231C13.8463 12.4014 13.8214 12.3797 13.8214 12.3797C13.7283 12.2959 13.6073 12.2493 13.48 12.2431C13.4365 12.24 13.39 12.24 13.3403 12.24C13.1975 12.2369 13.0703 12.2369 12.9771 12.2493C12.7133 12.2866 12.5208 12.4635 12.3998 12.6125C12.2539 12.7894 12.08 13.0533 11.9652 13.4009C11.9559 13.432 11.9466 13.4599 11.9373 13.491C11.81 13.9317 11.8348 14.4036 11.9869 14.8381C12.1297 15.2448 12.3377 15.729 12.6512 16.2412C13.182 17.1134 13.7594 17.6536 14.1505 18.0105C14.5913 18.4172 15.1376 18.9169 16.0036 19.3329C16.8045 19.7178 17.5308 19.8606 18.0182 19.9196C18.2169 19.9382 18.5831 19.9413 19.0022 19.783C19.1946 19.7085 19.3561 19.6185 19.4864 19.5222C19.831 19.277 20.0731 18.9076 20.1352 18.4917C20.1352 18.4886 20.1352 18.4855 20.1352 18.4824C20.1569 18.324 20.1538 18.1875 20.1445 18.0726Z" fill="#00A76B"/>
</svg>
