<svg width="32" height="32" viewBox="0 0 32 32" fill="none" xmlns="http://www.w3.org/2000/svg">
<path opacity="0.1" fill-rule="evenodd" clip-rule="evenodd" d="M0 16C0 7.16344 7.16344 0 16 0C24.8366 0 32 7.16344 32 16C32 24.8366 24.8366 32 16 32C7.16344 32 0 24.8366 0 16Z" fill="white"/>
<path d="M6.3275 11.5441H9.47316C9.53893 11.544 9.60316 11.5617 9.65731 11.5949C9.71146 11.6282 9.75295 11.6753 9.77626 11.73C10.1244 12.5283 11.5703 15.6521 12.8933 15.9073C13.8763 15.9073 13.5281 11.7519 12.2789 11.7519C11.9512 11.7519 12.8605 11.2343 12.9219 11.2124C14.0829 10.9292 15.3081 10.9292 16.469 11.2124C17.0957 11.4457 17.2022 12.0981 17.2185 12.6522C17.2349 13.2063 16.5222 15.5683 17.4602 15.8234C18.689 16.1588 20.27 12.7287 20.6386 11.8867C20.6626 11.8327 20.7044 11.7864 20.7585 11.7538C20.8126 11.7213 20.8765 11.7041 20.9417 11.7045H24.4438C24.4979 11.7043 24.5512 11.7161 24.5989 11.7388C24.6467 11.7614 24.6874 11.7943 24.7174 11.8343C24.7474 11.8744 24.7658 11.9205 24.771 11.9684C24.7761 12.0164 24.7678 12.0647 24.7469 12.1091C24.0255 13.5736 23.1606 14.9787 22.1623 16.3082C22.0774 16.4179 22.0376 16.5503 22.0496 16.6831C22.0615 16.8159 22.1245 16.9409 22.2279 17.0372C23.2764 18.036 26.1436 20.8646 24.5052 20.8646H20.9704C20.8791 20.8648 20.7887 20.8477 20.7054 20.8143C20.622 20.781 20.5476 20.7323 20.4871 20.6714C19.9382 20.1319 18.3408 18.6301 17.6199 18.7504C17.0219 18.8489 16.9646 19.7528 16.9933 20.3433C17.0023 20.4957 16.9439 20.6451 16.8306 20.7596C16.7173 20.8741 16.558 20.9445 16.3871 20.9557C15.7604 20.9885 14.9044 21.0031 14.8265 20.9995C12.328 20.8573 10.8494 19.3737 9.4363 17.7189C7.95609 15.9644 6.80142 14.0102 6.01621 11.9305C6.00016 11.8865 5.99595 11.8397 6.00393 11.794C6.01191 11.7483 6.03185 11.7049 6.06214 11.6673C6.09243 11.6297 6.13223 11.5989 6.17832 11.5775C6.22442 11.5561 6.27551 11.5447 6.3275 11.5441Z" fill="white"/>
</svg>
