<svg width="32" height="32" viewBox="0 0 32 32" fill="none" xmlns="http://www.w3.org/2000/svg">
<path opacity="0.1" fill-rule="evenodd" clip-rule="evenodd" d="M0 16C0 7.16344 7.16344 0 16 0C24.8366 0 32 7.16344 32 16C32 24.8366 24.8366 32 16 32C7.16344 32 0 24.8366 0 16Z" fill="white"/>
<path fill-rule="evenodd" clip-rule="evenodd" d="M23.2232 13.2135C23.7051 13.4947 24 14.001 24 14.5474V20.6667C24 21.9553 22.9255 23 21.6 23H10.4C9.07452 23 8 21.9553 8 20.6667V14.5474C8 14.001 8.29488 13.4947 8.77681 13.2135L16 9L23.2232 13.2135ZM16 10.75L22.4 14.4444L16 17.9444L9.6 14.4444L16 10.75Z" fill="white"/>
</svg>
