<svg width="32" height="32" viewBox="0 0 32 32" fill="none" xmlns="http://www.w3.org/2000/svg">
<path opacity="0.1" fill-rule="evenodd" clip-rule="evenodd" d="M0 16C0 7.16344 7.16344 0 16 0C24.8366 0 32 7.16344 32 16C32 24.8366 24.8366 32 16 32C7.16344 32 0 24.8366 0 16Z" fill="white"/>
<path d="M8.97172 14.8179L22.7177 9.28645C23.3557 9.0459 23.9129 9.44888 23.7062 10.4557L23.7074 10.4545L21.3669 21.9624C21.1934 22.7783 20.7289 22.9767 20.079 22.5923L16.5148 19.8508L14.7956 21.5793C14.6056 21.7777 14.4452 21.9451 14.0769 21.9451L14.3299 18.1595L20.9356 11.9313C21.2231 11.6671 20.8714 11.5184 20.4924 11.7812L12.3292 17.1452L8.81014 15.9995C8.04621 15.7466 8.02958 15.2022 8.97172 14.8179Z" fill="white"/>
</svg>
